<mxfile host="app.diagrams.net" agent="Mozilla/5.0 (Windows NT 10.0; Win64; x64; rv:133.0) Gecko/20100101 Firefox/133.0" version="25.0.0">
  <diagram name="PÃ¡gina-1" id="hTjL42PlE32E5PjJfVGV">
    <mxGraphModel grid="1" page="1" gridSize="10" guides="1" tooltips="1" connect="1" arrows="1" fold="1" pageScale="1" pageWidth="827" pageHeight="1169" math="0" shadow="0">
      <root>
        <mxCell id="0" />
        <mxCell id="1" parent="0" />
        <mxCell id="S8wWIlrZ2Egk7KeZBpSU-5" style="edgeStyle=orthogonalEdgeStyle;rounded=0;orthogonalLoop=1;jettySize=auto;html=1;entryX=0;entryY=0.5;entryDx=0;entryDy=0;" edge="1" parent="1" source="S8wWIlrZ2Egk7KeZBpSU-1" target="S8wWIlrZ2Egk7KeZBpSU-4">
          <mxGeometry relative="1" as="geometry" />
        </mxCell>
        <mxCell id="S8wWIlrZ2Egk7KeZBpSU-8" style="edgeStyle=orthogonalEdgeStyle;rounded=0;orthogonalLoop=1;jettySize=auto;html=1;entryX=0;entryY=0.5;entryDx=0;entryDy=0;" edge="1" parent="1" source="S8wWIlrZ2Egk7KeZBpSU-1" target="S8wWIlrZ2Egk7KeZBpSU-7">
          <mxGeometry relative="1" as="geometry" />
        </mxCell>
        <mxCell id="S8wWIlrZ2Egk7KeZBpSU-1" value="gerenciar tarefas de um setor" style="rounded=1;whiteSpace=wrap;html=1;" vertex="1" parent="1">
          <mxGeometry x="160" y="160" width="120" height="80" as="geometry" />
        </mxCell>
        <mxCell id="S8wWIlrZ2Egk7KeZBpSU-3" style="edgeStyle=orthogonalEdgeStyle;rounded=0;orthogonalLoop=1;jettySize=auto;html=1;entryX=0;entryY=0.5;entryDx=0;entryDy=0;" edge="1" parent="1" source="S8wWIlrZ2Egk7KeZBpSU-2" target="S8wWIlrZ2Egk7KeZBpSU-1">
          <mxGeometry relative="1" as="geometry" />
        </mxCell>
        <mxCell id="S8wWIlrZ2Egk7KeZBpSU-2" value="usuario" style="shape=umlActor;verticalLabelPosition=bottom;verticalAlign=top;html=1;outlineConnect=0;" vertex="1" parent="1">
          <mxGeometry x="40" y="160" width="40" height="80" as="geometry" />
        </mxCell>
        <mxCell id="S8wWIlrZ2Egk7KeZBpSU-4" value="criar, listar, atualizar e deletar tarefas" style="rounded=1;whiteSpace=wrap;html=1;" vertex="1" parent="1">
          <mxGeometry x="360" y="80" width="120" height="80" as="geometry" />
        </mxCell>
        <mxCell id="S8wWIlrZ2Egk7KeZBpSU-7" value="marcar como; feita, a fazer ou fazendo" style="rounded=1;whiteSpace=wrap;html=1;" vertex="1" parent="1">
          <mxGeometry x="360" y="240" width="120" height="80" as="geometry" />
        </mxCell>
      </root>
    </mxGraphModel>
  </diagram>
</mxfile>
